# xmcd
#
# Track frame offsets:
#       150
#       13562
#       28487
#       42840
#       55917
#       69902
#       83767
#       99152
#       113455
#       128797
#       144197
#       158687
#       173395
#       187567
#       202152
#       215700
#       229335
#       243270
#       257100
#       271762
#       284365
#       299067
#       313002
#       327050
#
# Disc length: 4552 seconds
#
# Revision: 2
# Processed by: cddbd v1.5.1PL0 Copyright (c) Steve Scherf et al.
# Submitted via: MusiCat 1.1
#
DISCID=4b11c618
DTITLE=Kokomo Arnold - Kokomo Arnold   Vol. 1 (1930-1935)
DYEAR=1900
DGENRE=
TTITLE0=Rainy Night Blues
TTITLE1=Paddlin' Madeline Blues
TTITLE2=Milk Cow Blues
TTITLE3=Old Original Kokomo Blues
TTITLE4=Back to the Woods
TTITLE5=Sagefied Woman Blues
TTITLE6=Old Black Cat Blues (Jinx Blues)
TTITLE7=Sissy Man Blues
TTITLE8=Front Door Blues (32 20 Blues)
TTITLE9=Back Door Blues
TTITLE10=The Twelves (Dirty Dozens)
TTITLE11=Feels So Good
TTITLE12=Milk Cow Blues #2
TTITLE13=Biscuit Roller Blues
TTITLE14=Slop Jar Blues
TTITLE15=Black Annie
TTITLE16=Chain Gang Blues
TTITLE17=Monday Morning Blues
TTITLE18=How Long How Long Blues
TTITLE19=Things 'Bout Coming My Way
TTITLE20=You Should Not a 'Done it (Gettin' it Fixed)
TTITLE21=Lonesome Southern Blues
TTITLE22=Black Money Blues
TTITLE23=Hobo Blues
EXTD=Document\nDOCD 5037\n
EXTT0=
EXTT1=
EXTT2=
EXTT3=
EXTT4=
EXTT5=
EXTT6=
EXTT7=
EXTT8=
EXTT9=
EXTT10=
EXTT11=
EXTT12=
EXTT13=
EXTT14=
EXTT15=
EXTT16=
EXTT17=
EXTT18=
EXTT19=
EXTT20=
EXTT21=
EXTT22=
EXTT23=
PLAYORDER=
